<?xml version="1.0" encoding="UTF-8" standalone="no"?>
<svg width="237px" height="237px" viewBox="0 0 237 237" version="1.1" xmlns="http://www.w3.org/2000/svg" xmlns:xlink="http://www.w3.org/1999/xlink" xmlns:sketch="http://www.bohemiancoding.com/sketch/ns">
    <!-- Generator: Sketch 3.2.2 (9983) - http://www.bohemiancoding.com/sketch -->
    <title>logo-outling-lg</title>
    <desc>Created with Sketch.</desc>
    <defs></defs>
    <g id="Home" stroke="none" stroke-width="1" fill="none" fill-rule="evenodd" sketch:type="MSPage">
        <g id="home---article-list" sketch:type="MSArtboardGroup" transform="translate(-522.000000, -132.000000)" fill="#564D58">
            <g id="logo-line-gray" sketch:type="MSLayerGroup" transform="translate(522.000000, 132.000000)">
                <path d="M27.8884268,76.2163429 C29.3216645,76.36996 29.641094,77.1816448 29.641094,77.1816448 C29.641094,77.1816448 31.4000745,84.5696962 38.3761787,86.3536507 C45.6851613,88.2227301 72.4963544,88.1407463 72.4963544,88.1407463 C72.4963544,88.1407463 90.9168578,89.7731283 101.865454,94.9878024 C112.81405,100.202476 118.329004,109.873404 118.329004,109.873404 C118.329004,109.873404 122.285815,96.5023361 124.767512,89.4293636 C127.467939,81.7329985 133.875378,65.5653908 133.875378,65.5653908 C133.875378,65.5653908 134.534094,63.5970195 135.083907,63.1206408 C135.443979,62.8086599 136.605033,63.2003121 136.605033,63.2003121 C136.605033,63.2003121 137.836372,63.413692 138.364942,63.6257667 C138.872212,63.829295 139.712552,64.447121 139.712552,64.447121 C139.712552,64.447121 140.048842,64.919602 140.075954,65.1894525 C140.109838,65.5267003 139.895541,66.2684161 139.895541,66.2684161 C139.895541,66.2684161 133.834909,82.6631536 130.975099,90.8598547 C128.139466,98.9872576 123.112819,114.467858 123.112819,114.467858 C123.112819,114.467858 124.627904,114.402987 125.712975,113.886396 C127.581138,112.996983 131.66891,111.022718 131.66891,111.022718 C131.66891,111.022718 136.752193,107.588424 139.232061,105.720023 C141.760902,103.814725 146.220779,100.416769 146.220779,100.416769 C146.220779,100.416769 151.303056,97.0698177 157.71183,94.0131435 C163.811433,91.1039291 171.122194,88.5196113 176.027962,86.9455934 C186.152696,83.6970677 207.249826,80.2725898 207.249826,80.2725898 C207.249826,80.2725898 210.095977,80.2295919 211.364592,80.54177 C212.382559,80.7922691 214.109575,81.9606213 214.109575,81.9606213 C214.109575,81.9606213 215.345813,82.774602 214.904994,84.679537 C214.464175,86.5844721 213.065141,87.003408 213.065141,87.003408 C213.065141,87.003408 212.388702,87.2088391 211.290043,87.156669 C210.191384,87.1044989 209.336383,86.7760134 209.336383,86.7760134 C209.336383,86.7760134 206.334348,86.3355605 204.93885,86.3531147 C201.24607,86.3753797 198.438309,86.9131024 198.438309,86.9131024 C198.438309,86.9131024 185.051719,89.8414051 178.582937,91.9486433 C172.150873,94.0439198 159.735771,99.5206466 159.735771,99.5206466 C159.735771,99.5206466 153.190964,102.716056 150.126995,104.927514 C147.05953,107.141495 144.282288,109.026136 141.341467,112.796965 C140.377259,114.115004 139.134981,115.60617 139.567052,119.997088 C139.999124,124.388005 142.881895,128.054063 142.881895,128.054063 C142.881895,128.054063 146.949022,132.293047 150.507162,133.883701 C154.571135,135.700487 165.608074,138.803363 165.608074,138.803363 C165.608074,138.803363 177.109682,141.453195 186.997275,146.588418 C191.592456,148.634785 198.194497,153.053706 198.194497,153.053706 C198.194497,153.053706 204.109708,156.831091 207.138767,161.127197 C209.625888,165.83193 209.392062,168.781947 209.392062,168.781947 C209.392062,168.781947 209.907076,170.567222 209.330105,172.001575 C208.753133,173.435928 207.564198,173.704104 207.564198,173.704104 C207.564198,173.704104 206.484084,173.957103 205.983929,173.992866 C205.484361,174.028586 204.565031,173.918553 204.565031,173.918553 C204.565031,173.918553 203.614423,173.735751 203.315396,173.44331 C202.884861,173.022256 202.376345,171.778067 202.376345,171.778067 L202.060482,170.217358 C202.060482,170.217358 201.360424,166.703877 199.131268,163.703692 C196.902111,160.703506 193.055507,158.108237 193.055507,158.108237 C193.055507,158.108237 185.294934,152.997124 176.389595,149.815435 C170.218892,147.432874 156.65813,144.267075 156.65813,144.267075 C156.65813,144.267075 149.371919,142.353352 141.999072,135.918648 C138.427391,132.715362 133.445658,123.448814 133.445658,123.448814 C133.445658,123.448814 128.812339,131.142988 126.53595,135.108744 C124.430917,138.775976 120.301391,146.347778 120.301391,146.347778 C120.301391,146.347778 118.466518,149.732764 117.426422,151.77791 C116.560662,153.48026 114.583821,157.590265 114.583821,157.590265 C114.583821,157.590265 113.85146,159.477238 113.565462,160.435763 C113.33176,161.21902 113.02472,162.815613 113.02472,162.815613 C113.02472,162.815613 112.090294,165.579315 109.612003,165.375226 C107.133713,165.171138 106.579769,162.923017 106.579769,162.923017 L106.348261,161.096099 L106.421105,159.706982 C106.421105,159.706982 107.525002,150.671864 108.214834,146.244679 C108.78636,142.576759 110.205179,135.421665 110.205179,135.421665 C110.205179,135.421665 97.0946227,145.576487 87.2466722,150.51276 C81.7112684,153.722889 70.6761665,157.930303 70.6761665,157.930303 C70.6761665,157.930303 61.2167167,161.868286 56.5446405,163.646159 C52.1747736,165.309033 43.5503373,168.252544 43.5503373,168.252544 C43.5503373,168.252544 42.1131759,169.362096 41.8098989,169.934835 C41.5019004,170.51649 41.7165107,171.715725 41.7165107,171.715725 C41.7165107,171.715725 40.4343594,172.519167 39.504905,172.491362 C37.1049591,172.483519 35.4522155,171.528329 35.4522155,171.528329 C35.4522155,171.528329 34.8189877,170.189525 34.3525135,168.198816 C33.8860392,166.208106 34.1313989,164.424648 34.1313989,164.424648 L39.137995,162.017321 L45.0363407,159.957889 C45.0363407,159.957889 60.0374149,154.98391 72.2683015,149.728245 C84.499188,144.47258 96.6017648,137.029008 96.6017648,137.029008 C96.6017648,137.029008 104.119544,132.196335 107.244562,129.467631 C109.806053,127.230987 113.661293,122.132964 113.661293,122.132964 L113.540745,121.369717 C113.540745,121.369717 105.804312,123.877215 99.7218152,125.009595 C92.2071768,126.408598 83.5307677,127.415249 83.5307677,127.415249 C83.5307677,127.415249 80.5234581,127.51129 78.9994141,127.177913 C78.048468,126.969898 76.1057976,125.791074 76.1057976,125.791074 C76.1057976,125.791074 75.0458453,124.501048 74.810075,122.608433 C74.5743048,120.715818 75.6480381,120.253654 75.6480381,120.253654 C75.6480381,120.253654 77.9020985,119.297465 79.4308789,118.949987 C80.6560814,118.67151 83.909987,118.375788 83.909987,118.375788 C83.909987,118.375788 84.2722311,118.374008 84.9192709,119.139261 C85.5663108,119.904514 86.0871543,119.658086 86.0871543,119.658086 C86.0871543,119.658086 93.344471,119.310568 100.068048,118.407016 C106.791626,117.503465 113.561508,116.098973 113.561508,116.098973 C113.561508,116.098973 112.209909,109.552907 106.399217,104.625055 C100.588525,99.6972029 90.3725938,97.0949394 90.3725938,97.0949394 C90.3725938,97.0949394 83.3535361,95.5200123 76.9803383,94.8470242 C70.6071405,94.1740361 58.1076133,93.514476 58.1076133,93.514476 C58.1076133,93.514476 47.4148848,93.1247135 43.2248093,92.7349669 C40.180845,92.4518276 36.4054938,91.4958183 36.4054938,91.4958183 C36.4054938,91.4958183 31.0778147,89.9137738 29.0561264,88.3368307 C26.9885118,86.7240644 24.137585,81.9266902 24.137585,81.9266902 C24.137585,81.9266902 23.713585,79.7433193 24.3542372,77.7951875 C24.8042014,76.6859222 25.613732,76.5342107 25.613732,76.5342107 C25.613732,76.5342107 26.4551891,76.0627259 27.8884268,76.2163429 L27.8884268,76.2163429 Z M124.977193,127.524787 C127.165778,122.938357 131,116 131,116 C131,116 128.004185,117.260999 126.289098,117.78397 C125.248893,118.101153 122.151674,119.133412 122.151674,119.133412 C122.151674,119.133412 121.363162,119.55765 121.142471,119.928714 C120.937404,120.273507 120.871145,121.345724 120.871145,121.345724 C120.871145,121.345724 119.099581,126.928756 118.143956,130.733986 C117.132558,134.761298 115,144.248259 115,144.248259 C115,144.248259 115.39302,145.094662 115.861589,144.991239 C116.139634,144.929869 117.239844,143.753879 117.239844,143.753879 C117.239844,143.753879 122.76432,132.162116 124.977193,127.524787 L124.977193,127.524787 Z" id="Path-1" sketch:type="MSShapeGroup"></path>
                <path d="M237,118.5 C237,53.0542571 183.945743,0 118.5,0 C53.0542571,0 0,53.0542571 0,118.5 C0,183.945743 53.0542571,237 118.5,237 C183.945743,237 237,183.945743 237,118.5 Z M5,118.5 C5,55.8156809 55.8156809,5 118.5,5 C181.184319,5 232,55.8156809 232,118.5 C232,181.184319 181.184319,232 118.5,232 C55.8156809,232 5,181.184319 5,118.5 Z" id="Oval-1" sketch:type="MSShapeGroup"></path>
            </g>
        </g>
    </g>
</svg>